<svg width="194" height="52" viewBox="0 0 194 52" fill="none" xmlns="http://www.w3.org/2000/svg">
<path d="M71.9262 18.1119V33.5244H69.3981V26.7828H62.1465V33.5244H59.6184V18.1119H62.1465V24.7205H69.3981V18.1119H71.9262Z" fill="#31B3EB"/>
<path d="M74.4117 27.3594C74.4117 26.1323 74.663 25.0457 75.1657 24.0995C75.6831 23.1533 76.378 22.4215 77.2502 21.9041C78.1373 21.3718 79.113 21.1057 80.1775 21.1057C81.1385 21.1057 81.9738 21.2979 82.6834 21.6823C83.4078 22.0519 83.9844 22.5176 84.4131 23.0794V21.3053H86.9634V33.5244H84.4131V31.706C83.9844 32.2825 83.4004 32.763 82.6612 33.1474C81.922 33.5318 81.0793 33.724 80.1331 33.724C79.0835 33.724 78.1225 33.4579 77.2502 32.9256C76.378 32.3786 75.6831 31.6246 75.1657 30.6637C74.663 29.6879 74.4117 28.5865 74.4117 27.3594ZM84.4131 27.4038C84.4131 26.5611 84.2357 25.8293 83.8809 25.2083C83.5409 24.5874 83.09 24.1143 82.5282 23.7891C81.9664 23.4638 81.3602 23.3012 80.7097 23.3012C80.0592 23.3012 79.4531 23.4638 78.8913 23.7891C78.3295 24.0995 77.8712 24.5652 77.5163 25.1862C77.1763 25.7923 77.0063 26.5167 77.0063 27.3594C77.0063 28.2021 77.1763 28.9413 77.5163 29.577C77.8712 30.2128 78.3295 30.7006 78.8913 31.0407C79.4678 31.3659 80.074 31.5285 80.7097 31.5285C81.3602 31.5285 81.9664 31.3659 82.5282 31.0407C83.09 30.7154 83.5409 30.2423 83.8809 29.6214C84.2357 28.9857 84.4131 28.2465 84.4131 27.4038Z" fill="#31B3EB"/>
<path d="M101.35 21.3053V33.5244H98.8218V32.083C98.4226 32.5856 97.8978 32.9848 97.2473 33.2805C96.6116 33.5614 95.9315 33.7018 95.2071 33.7018C94.2461 33.7018 93.3812 33.5022 92.6124 33.1031C91.8585 32.7039 91.2597 32.1125 90.8162 31.329C90.3874 30.5454 90.1731 29.5992 90.1731 28.4904V21.3053H92.679V28.1134C92.679 29.2074 92.9525 30.0501 93.4995 30.6415C94.0465 31.2181 94.7931 31.5064 95.7393 31.5064C96.6855 31.5064 97.4321 31.2181 97.9791 30.6415C98.5409 30.0501 98.8218 29.2074 98.8218 28.1134V21.3053H101.35Z" fill="#31B3EB"/>
<path d="M110.85 21.1057C111.811 21.1057 112.669 21.3053 113.423 21.7045C114.192 22.1037 114.79 22.695 115.219 23.4786C115.648 24.2621 115.862 25.2083 115.862 26.3171V33.5244H113.356V26.6941C113.356 25.6001 113.083 24.7648 112.536 24.1882C111.989 23.5969 111.242 23.3012 110.296 23.3012C109.35 23.3012 108.596 23.5969 108.034 24.1882C107.487 24.7648 107.214 25.6001 107.214 26.6941V33.5244H104.685V21.3053H107.214V22.7024C107.628 22.1998 108.152 21.808 108.788 21.5271C109.439 21.2462 110.126 21.1057 110.85 21.1057Z" fill="#31B3EB"/>
<path d="M118.244 27.3594C118.244 26.1323 118.496 25.0457 118.998 24.0995C119.516 23.1533 120.211 22.4215 121.083 21.9041C121.97 21.3718 122.946 21.1057 124.01 21.1057C124.971 21.1057 125.806 21.2979 126.516 21.6823C127.24 22.0519 127.817 22.5176 128.246 23.0794V21.3053H130.796V33.5244H128.246V31.706C127.817 32.2825 127.233 32.763 126.494 33.1474C125.755 33.5318 124.912 33.724 123.966 33.724C122.916 33.724 121.955 33.4579 121.083 32.9256C120.211 32.3786 119.516 31.6246 118.998 30.6637C118.496 29.6879 118.244 28.5865 118.244 27.3594ZM128.246 27.4038C128.246 26.5611 128.068 25.8293 127.714 25.2083C127.374 24.5874 126.923 24.1143 126.361 23.7891C125.799 23.4638 125.193 23.3012 124.542 23.3012C123.892 23.3012 123.286 23.4638 122.724 23.7891C122.162 24.0995 121.704 24.5652 121.349 25.1862C121.009 25.7923 120.839 26.5167 120.839 27.3594C120.839 28.2021 121.009 28.9413 121.349 29.577C121.704 30.2128 122.162 30.7006 122.724 31.0407C123.3 31.3659 123.907 31.5285 124.542 31.5285C125.193 31.5285 125.799 31.3659 126.361 31.0407C126.923 30.7154 127.374 30.2423 127.714 29.6214C128.068 28.9857 128.246 28.2465 128.246 27.4038Z" fill="#31B3EB"/>
<path d="M140.282 21.1057C141.243 21.1057 142.1 21.3053 142.854 21.7045C143.623 22.1037 144.222 22.695 144.65 23.4786C145.079 24.2621 145.293 25.2083 145.293 26.3171V33.5244H142.787V26.6941C142.787 25.6001 142.514 24.7648 141.967 24.1882C141.42 23.5969 140.673 23.3012 139.727 23.3012C138.781 23.3012 138.027 23.5969 137.465 24.1882C136.918 24.7648 136.645 25.6001 136.645 26.6941V33.5244H134.117V21.3053H136.645V22.7024C137.059 22.1998 137.583 21.808 138.219 21.5271C138.87 21.2462 139.557 21.1057 140.282 21.1057Z" fill="#31B3EB"/>
<path d="M149.538 33.6796C149.08 33.6796 148.696 33.5244 148.385 33.2139C148.075 32.9035 147.919 32.5191 147.919 32.0608C147.919 31.6025 148.075 31.2181 148.385 30.9076C148.696 30.5971 149.08 30.4419 149.538 30.4419C149.982 30.4419 150.359 30.5971 150.669 30.9076C150.98 31.2181 151.135 31.6025 151.135 32.0608C151.135 32.5191 150.98 32.9035 150.669 33.2139C150.359 33.5244 149.982 33.6796 149.538 33.6796Z" fill="#31B3EB"/>
<path d="M153.025 27.3594C153.025 26.1323 153.276 25.0457 153.779 24.0995C154.296 23.1533 154.991 22.4215 155.863 21.9041C156.75 21.3718 157.733 21.1057 158.813 21.1057C159.611 21.1057 160.394 21.2831 161.163 21.638C161.947 21.978 162.568 22.4363 163.026 23.0129V17.114H165.576V33.5244H163.026V31.6838C162.612 32.2751 162.036 32.763 161.296 33.1474C160.572 33.5318 159.737 33.724 158.79 33.724C157.726 33.724 156.75 33.4579 155.863 32.9256C154.991 32.3786 154.296 31.6246 153.779 30.6637C153.276 29.6879 153.025 28.5865 153.025 27.3594ZM163.026 27.4038C163.026 26.5611 162.849 25.8293 162.494 25.2083C162.154 24.5874 161.703 24.1143 161.141 23.7891C160.579 23.4638 159.973 23.3012 159.323 23.3012C158.672 23.3012 158.066 23.4638 157.504 23.7891C156.942 24.0995 156.484 24.5652 156.129 25.1862C155.789 25.7923 155.619 26.5167 155.619 27.3594C155.619 28.2021 155.789 28.9413 156.129 29.577C156.484 30.2128 156.942 30.7006 157.504 31.0407C158.081 31.3659 158.687 31.5285 159.323 31.5285C159.973 31.5285 160.579 31.3659 161.141 31.0407C161.703 30.7154 162.154 30.2423 162.494 29.6214C162.849 28.9857 163.026 28.2465 163.026 27.4038Z" fill="#31B3EB"/>
<path d="M180.096 27.1155C180.096 27.5738 180.066 27.9877 180.007 28.3573H170.671C170.745 29.3331 171.107 30.1167 171.758 30.708C172.408 31.2994 173.206 31.5951 174.153 31.5951C175.513 31.5951 176.474 31.0259 177.036 29.8875H179.763C179.394 31.0111 178.721 31.9351 177.745 32.6595C176.784 33.3692 175.587 33.724 174.153 33.724C172.985 33.724 171.935 33.4653 171.004 32.9478C170.087 32.4156 169.363 31.6764 168.83 30.7302C168.313 29.7692 168.054 28.6604 168.054 27.4038C168.054 26.1471 168.305 25.0457 168.808 24.0995C169.326 23.1385 170.043 22.3993 170.959 21.8819C171.891 21.3645 172.955 21.1057 174.153 21.1057C175.306 21.1057 176.333 21.3571 177.235 21.8597C178.137 22.3624 178.839 23.072 179.342 23.9886C179.845 24.8905 180.096 25.9327 180.096 27.1155ZM177.457 26.3171C177.442 25.3857 177.109 24.6391 176.459 24.0773C175.808 23.5155 175.003 23.2346 174.042 23.2346C173.169 23.2346 172.423 23.5155 171.802 24.0773C171.181 24.6244 170.811 25.371 170.693 26.3171H177.457Z" fill="#31B3EB"/>
<path d="M187.307 31.2624L190.767 21.3053H193.45L188.793 33.5244H185.777L181.142 21.3053H183.848L187.307 31.2624Z" fill="#31B3EB"/>
<path fill-rule="evenodd" clip-rule="evenodd" d="M26.7735 0.924104V0.924104L49.4198 13.2362C49.4537 13.2546 49.4663 13.297 49.4479 13.331C49.4424 13.3412 49.4395 13.3526 49.4395 13.3643V30.5649C49.4395 30.7941 49.5551 31.0059 49.7343 31.1489C50.8455 32.0354 51.5575 33.4012 51.5575 34.9332C51.5575 37.6054 49.3912 39.7717 46.719 39.7717C44.0467 39.7717 41.8804 37.6054 41.8804 34.9332C41.8804 33.3586 42.6326 31.9597 43.7972 31.0761C43.9851 30.9335 44.1073 30.7167 44.1073 30.4808V16.9643C44.1073 16.7098 43.9679 16.4758 43.7441 16.3548L27.0793 7.33974C26.873 7.22814 26.6243 7.22846 26.4183 7.34058L11.1737 15.6378C10.9598 15.7543 10.8264 15.9754 10.7968 16.2172C10.5037 18.6089 8.4654 20.4611 5.99445 20.4611C3.32219 20.4611 1.15591 18.2948 1.15591 15.6226C1.15591 12.9503 3.32219 10.784 5.99445 10.784C6.56906 10.784 7.12029 10.8842 7.63161 11.068C7.8342 11.1409 8.05932 11.1344 8.2483 11.0313L26.7735 0.924104ZM48.3318 34.9332C48.3318 34.0424 47.6097 33.3204 46.7189 33.3204C45.8282 33.3204 45.1061 34.0424 45.1061 34.9332C45.1061 35.8239 45.8282 36.546 46.7189 36.546C47.6097 36.546 48.3318 35.8239 48.3318 34.9332ZM5.99442 17.2354C6.88517 17.2354 7.60726 16.5133 7.60726 15.6226C7.60726 14.7318 6.88517 14.0098 5.99442 14.0098C5.10367 14.0098 4.38157 14.7318 4.38157 15.6226C4.38157 16.5133 5.10367 17.2354 5.99442 17.2354ZM40.3301 42.908C41.6343 42.1828 42.1092 40.5275 41.3909 39.2109C40.6725 37.8941 39.0329 37.4149 37.7287 38.1401L27.2306 43.9779C27.0222 44.0938 26.7689 44.0944 26.56 43.9796L23.7509 42.4355C21.5231 41.2109 18.7338 42.0416 17.5208 44.2906L17.4682 44.3882C17.2863 44.7255 17.4096 45.1479 17.7438 45.3315L26.8974 50.3629C26.9384 50.3855 26.99 50.3703 27.0122 50.3291C27.0198 50.3149 27.0313 50.3032 27.0454 50.2954L40.3301 42.908ZM27.0395 21.5222C26.8251 21.3986 26.5611 21.3986 26.3468 21.5224L9.76839 31.0939C9.55398 31.2177 9.42189 31.4465 9.42189 31.6941V34.2805C9.42189 34.534 9.56022 34.7672 9.78262 34.8887L13.4189 36.8755C13.6387 36.9956 13.9063 36.9877 14.1187 36.8549L21.3508 32.3315C21.541 32.2126 21.6585 32.0084 21.6882 31.7861C21.8804 30.3495 22.7132 29.0146 24.0655 28.2339C26.3797 26.8978 29.3389 27.6907 30.675 30.005C32.0112 32.3192 31.2183 35.2784 28.904 36.6145C27.6039 37.3651 26.1003 37.4438 24.7952 36.9583C24.5758 36.8767 24.3293 36.8889 24.1309 37.013L10.8927 45.2929C10.7034 45.4113 10.5861 45.6144 10.5556 45.8355C10.2308 48.1923 8.20867 50.0074 5.76261 50.0074C3.09036 50.0074 0.924072 47.8411 0.924072 45.1688C0.924072 42.4966 3.09036 40.3303 5.76261 40.3303C6.43401 40.3303 7.07348 40.467 7.65467 40.7142C7.76214 40.7599 7.88552 40.7534 7.98454 40.6915C8.20691 40.5524 8.19728 40.2254 7.96711 40.0996L4.15207 38.0152C4.13482 38.0057 4.11548 38.0008 4.09583 38.0008C4.03105 38.0008 3.97854 37.9483 3.97854 37.8835V28.1619C3.97854 28.1399 3.99637 28.1221 4.01837 28.1221C4.02536 28.1221 4.03223 28.1203 4.03828 28.1168L26.3133 15.2645C26.5265 15.1415 26.789 15.1408 27.0028 15.2627L31.3464 17.7385C31.5656 17.8634 31.8336 17.8557 32.0593 17.743C32.7095 17.4181 33.443 17.2353 34.2192 17.2353C36.8915 17.2353 39.0578 19.4016 39.0578 22.0738C39.0578 24.7461 36.8915 26.9124 34.2192 26.9124C31.946 26.9124 30.0389 25.3447 29.5201 23.2314C29.4711 23.0321 29.3507 22.8552 29.1729 22.7526L27.0395 21.5222ZM35.8321 22.0738C35.8321 21.1831 35.11 20.461 34.2192 20.461C33.3285 20.461 32.6064 21.1831 32.6064 22.0738C32.6064 22.9646 33.3285 23.6867 34.2192 23.6867C35.11 23.6867 35.8321 22.9646 35.8321 22.0738ZM27.8816 31.6178C27.4362 30.8464 26.4498 30.5821 25.6784 31.0275C24.907 31.4728 24.6427 32.4592 25.088 33.2306C25.5334 34.0021 26.5198 34.2664 27.2912 33.821C28.0626 33.3756 28.3269 32.3892 27.8816 31.6178ZM7.37545 45.1688C7.37545 44.278 6.65335 43.556 5.7626 43.556C4.87185 43.556 4.14976 44.278 4.14976 45.1688C4.14976 46.0595 4.87185 46.7816 5.7626 46.7816C6.65335 46.7816 7.37545 46.0595 7.37545 45.1688Z" fill="#31B3EB"/>
</svg>
