<svg width="52" height="51" viewBox="0 0 52 51" fill="none" xmlns="http://www.w3.org/2000/svg">
<path fill-rule="evenodd" clip-rule="evenodd" d="M26.7735 0.924104V0.924104L49.4198 13.2362C49.4537 13.2546 49.4663 13.297 49.4479 13.331C49.4424 13.3412 49.4395 13.3526 49.4395 13.3643V30.5649C49.4395 30.7941 49.5551 31.0059 49.7343 31.1489C50.8455 32.0354 51.5575 33.4012 51.5575 34.9332C51.5575 37.6054 49.3912 39.7717 46.719 39.7717C44.0467 39.7717 41.8804 37.6054 41.8804 34.9332C41.8804 33.3586 42.6326 31.9597 43.7972 31.0761C43.9851 30.9335 44.1073 30.7167 44.1073 30.4808V16.9643C44.1073 16.7098 43.9679 16.4758 43.7441 16.3548L27.0793 7.33974C26.873 7.22814 26.6243 7.22846 26.4183 7.34058L11.1737 15.6378C10.9598 15.7543 10.8264 15.9754 10.7968 16.2172C10.5037 18.6089 8.4654 20.4611 5.99445 20.4611C3.32219 20.4611 1.15591 18.2948 1.15591 15.6226C1.15591 12.9503 3.32219 10.784 5.99445 10.784C6.56906 10.784 7.12029 10.8842 7.63161 11.068C7.8342 11.1409 8.05932 11.1344 8.2483 11.0313L26.7735 0.924104ZM48.3318 34.9332C48.3318 34.0424 47.6097 33.3204 46.7189 33.3204C45.8282 33.3204 45.1061 34.0424 45.1061 34.9332C45.1061 35.8239 45.8282 36.546 46.7189 36.546C47.6097 36.546 48.3318 35.8239 48.3318 34.9332ZM5.99442 17.2354C6.88517 17.2354 7.60726 16.5133 7.60726 15.6226C7.60726 14.7318 6.88517 14.0098 5.99442 14.0098C5.10367 14.0098 4.38157 14.7318 4.38157 15.6226C4.38157 16.5133 5.10367 17.2354 5.99442 17.2354ZM40.3301 42.908C41.6343 42.1828 42.1092 40.5275 41.3909 39.2109C40.6725 37.8941 39.0329 37.4149 37.7287 38.1401L27.2306 43.9779C27.0222 44.0938 26.7689 44.0944 26.56 43.9796L23.7509 42.4355C21.5231 41.2109 18.7338 42.0416 17.5208 44.2906L17.4682 44.3882C17.2863 44.7255 17.4096 45.1479 17.7438 45.3315L26.8974 50.3629C26.9384 50.3855 26.99 50.3703 27.0122 50.3291C27.0198 50.3149 27.0313 50.3032 27.0454 50.2954L40.3301 42.908ZM27.0395 21.5222C26.8251 21.3986 26.5611 21.3986 26.3468 21.5224L9.76839 31.0939C9.55398 31.2177 9.42189 31.4465 9.42189 31.6941V34.2805C9.42189 34.534 9.56022 34.7672 9.78262 34.8887L13.4189 36.8755C13.6387 36.9956 13.9063 36.9877 14.1187 36.8549L21.3508 32.3315C21.541 32.2126 21.6585 32.0084 21.6882 31.7861C21.8804 30.3495 22.7132 29.0146 24.0655 28.2339C26.3797 26.8978 29.3389 27.6907 30.675 30.005C32.0112 32.3192 31.2183 35.2784 28.904 36.6145C27.6039 37.3651 26.1003 37.4438 24.7952 36.9583C24.5758 36.8767 24.3293 36.8889 24.1309 37.013L10.8927 45.2929C10.7034 45.4113 10.5861 45.6144 10.5556 45.8355C10.2308 48.1923 8.20867 50.0074 5.76261 50.0074C3.09036 50.0074 0.924072 47.8411 0.924072 45.1688C0.924072 42.4966 3.09036 40.3303 5.76261 40.3303C6.43401 40.3303 7.07348 40.467 7.65467 40.7142C7.76214 40.7599 7.88552 40.7534 7.98454 40.6915C8.20691 40.5524 8.19728 40.2254 7.96711 40.0996L4.15207 38.0152C4.13482 38.0057 4.11548 38.0008 4.09583 38.0008C4.03105 38.0008 3.97854 37.9483 3.97854 37.8835V28.1619C3.97854 28.1399 3.99637 28.1221 4.01837 28.1221C4.02536 28.1221 4.03223 28.1203 4.03828 28.1168L26.3133 15.2645C26.5265 15.1415 26.789 15.1408 27.0028 15.2627L31.3464 17.7385C31.5656 17.8634 31.8336 17.8557 32.0593 17.743C32.7095 17.4181 33.443 17.2353 34.2192 17.2353C36.8915 17.2353 39.0578 19.4016 39.0578 22.0738C39.0578 24.7461 36.8915 26.9124 34.2192 26.9124C31.946 26.9124 30.0389 25.3447 29.5201 23.2314C29.4711 23.0321 29.3507 22.8552 29.1729 22.7526L27.0395 21.5222ZM35.8321 22.0738C35.8321 21.1831 35.11 20.461 34.2192 20.461C33.3285 20.461 32.6064 21.1831 32.6064 22.0738C32.6064 22.9646 33.3285 23.6867 34.2192 23.6867C35.11 23.6867 35.8321 22.9646 35.8321 22.0738ZM27.8816 31.6178C27.4362 30.8464 26.4498 30.5821 25.6784 31.0275C24.907 31.4728 24.6427 32.4592 25.088 33.2306C25.5334 34.0021 26.5198 34.2664 27.2912 33.821C28.0626 33.3756 28.3269 32.3892 27.8816 31.6178ZM7.37545 45.1688C7.37545 44.278 6.65335 43.556 5.7626 43.556C4.87185 43.556 4.14976 44.278 4.14976 45.1688C4.14976 46.0595 4.87185 46.7816 5.7626 46.7816C6.65335 46.7816 7.37545 46.0595 7.37545 45.1688Z" fill="white"/>
</svg>
